<svg width="284.000000" height="4.000000" viewBox="0 0 284 4" fill="none" xmlns="http://www.w3.org/2000/svg" xmlns:xlink="http://www.w3.org/1999/xlink">
	<desc>
			Created with Pixso.
	</desc>
	<defs/>
	<mask id="mask_0_571" fill="white">
		<path id="Combined Shape" d="M0 2C0 0.895508 0.895447 0 2 0C3.10455 0 4 0.895508 4 2C4 3.10449 3.10455 4 2 4C0.895447 4 0 3.10449 0 2ZM18 2C18 0.895508 18.8954 0 20 0C21.1046 0 22 0.895508 22 2C22 3.10449 21.1046 4 20 4C18.8954 4 18 3.10449 18 2ZM35 2C35 0.895508 35.8954 0 37 0C38.1046 0 39 0.895508 39 2C39 3.10449 38.1046 4 37 4C35.8954 4 35 3.10449 35 2ZM53 2C53 0.895508 53.8954 0 55 0C56.1046 0 57 0.895508 57 2C57 3.10449 56.1046 4 55 4C53.8954 4 53 3.10449 53 2ZM70 2C70 0.895508 70.8954 0 72 0C73.1046 0 74 0.895508 74 2C74 3.10449 73.1046 4 72 4C70.8954 4 70 3.10449 70 2ZM88 2C88 0.895508 88.8954 0 90 0C91.1046 0 92 0.895508 92 2C92 3.10449 91.1046 4 90 4C88.8954 4 88 3.10449 88 2ZM105 2C105 0.895508 105.895 0 107 0C108.105 0 109 0.895508 109 2C109 3.10449 108.105 4 107 4C105.895 4 105 3.10449 105 2ZM123 2C123 0.895508 123.895 0 125 0C126.105 0 127 0.895508 127 2C127 3.10449 126.105 4 125 4C123.895 4 123 3.10449 123 2ZM140 2C140 0.895508 140.895 0 142 0C143.105 0 144 0.895508 144 2C144 3.10449 143.105 4 142 4C140.895 4 140 3.10449 140 2ZM158 2C158 0.895508 158.895 0 160 0C161.105 0 162 0.895508 162 2C162 3.10449 161.105 4 160 4C158.895 4 158 3.10449 158 2ZM175 2C175 0.895508 175.895 0 177 0C178.105 0 179 0.895508 179 2C179 3.10449 178.105 4 177 4C175.895 4 175 3.10449 175 2ZM193 2C193 0.895508 193.895 0 195 0C196.105 0 197 0.895508 197 2C197 3.10449 196.105 4 195 4C193.895 4 193 3.10449 193 2ZM210 2C210 0.895508 210.895 0 212 0C213.105 0 214 0.895508 214 2C214 3.10449 213.105 4 212 4C210.895 4 210 3.10449 210 2ZM228 2C228 0.895508 228.895 0 230 0C231.105 0 232 0.895508 232 2C232 3.10449 231.105 4 230 4C228.895 4 228 3.10449 228 2ZM245 2C245 0.895508 245.895 0 247 0C248.105 0 249 0.895508 249 2C249 3.10449 248.105 4 247 4C245.895 4 245 3.10449 245 2ZM263 2C263 0.895508 263.895 0 265 0C266.105 0 267 0.895508 267 2C267 3.10449 266.105 4 265 4C263.895 4 263 3.10449 263 2ZM280 2C280 0.895508 280.895 0 282 0C283.105 0 284 0.895508 284 2C284 3.10449 283.105 4 282 4C280.895 4 280 3.10449 280 2Z" clip-rule="evenodd" fill="" fill-opacity="1.000000" fill-rule="evenodd"/>
	</mask>
	<path id="Combined Shape" d="M0 2C0 0.895508 0.895447 0 2 0C3.10455 0 4 0.895508 4 2C4 3.10449 3.10455 4 2 4C0.895447 4 0 3.10449 0 2ZM18 2C18 0.895508 18.8954 0 20 0C21.1046 0 22 0.895508 22 2C22 3.10449 21.1046 4 20 4C18.8954 4 18 3.10449 18 2ZM35 2C35 0.895508 35.8954 0 37 0C38.1046 0 39 0.895508 39 2C39 3.10449 38.1046 4 37 4C35.8954 4 35 3.10449 35 2ZM53 2C53 0.895508 53.8954 0 55 0C56.1046 0 57 0.895508 57 2C57 3.10449 56.1046 4 55 4C53.8954 4 53 3.10449 53 2ZM70 2C70 0.895508 70.8954 0 72 0C73.1046 0 74 0.895508 74 2C74 3.10449 73.1046 4 72 4C70.8954 4 70 3.10449 70 2ZM88 2C88 0.895508 88.8954 0 90 0C91.1046 0 92 0.895508 92 2C92 3.10449 91.1046 4 90 4C88.8954 4 88 3.10449 88 2ZM105 2C105 0.895508 105.895 0 107 0C108.105 0 109 0.895508 109 2C109 3.10449 108.105 4 107 4C105.895 4 105 3.10449 105 2ZM123 2C123 0.895508 123.895 0 125 0C126.105 0 127 0.895508 127 2C127 3.10449 126.105 4 125 4C123.895 4 123 3.10449 123 2ZM140 2C140 0.895508 140.895 0 142 0C143.105 0 144 0.895508 144 2C144 3.10449 143.105 4 142 4C140.895 4 140 3.10449 140 2ZM158 2C158 0.895508 158.895 0 160 0C161.105 0 162 0.895508 162 2C162 3.10449 161.105 4 160 4C158.895 4 158 3.10449 158 2ZM175 2C175 0.895508 175.895 0 177 0C178.105 0 179 0.895508 179 2C179 3.10449 178.105 4 177 4C175.895 4 175 3.10449 175 2ZM193 2C193 0.895508 193.895 0 195 0C196.105 0 197 0.895508 197 2C197 3.10449 196.105 4 195 4C193.895 4 193 3.10449 193 2ZM210 2C210 0.895508 210.895 0 212 0C213.105 0 214 0.895508 214 2C214 3.10449 213.105 4 212 4C210.895 4 210 3.10449 210 2ZM228 2C228 0.895508 228.895 0 230 0C231.105 0 232 0.895508 232 2C232 3.10449 231.105 4 230 4C228.895 4 228 3.10449 228 2ZM245 2C245 0.895508 245.895 0 247 0C248.105 0 249 0.895508 249 2C249 3.10449 248.105 4 247 4C245.895 4 245 3.10449 245 2ZM263 2C263 0.895508 263.895 0 265 0C266.105 0 267 0.895508 267 2C267 3.10449 266.105 4 265 4C263.895 4 263 3.10449 263 2ZM280 2C280 0.895508 280.895 0 282 0C283.105 0 284 0.895508 284 2C284 3.10449 283.105 4 282 4C280.895 4 280 3.10449 280 2Z" clip-rule="evenodd" fill="#495DCF" fill-opacity="0.200120" fill-rule="evenodd" mask="url(#mask_0_571)"/>
	<path id="Combined Shape" d="" fill="#979797" fill-opacity="0.000000" fill-rule="nonzero"/>
</svg>
